<svg height='100px' width='100px'  fill="#000000" xmlns="http://www.w3.org/2000/svg" xmlns:xlink="http://www.w3.org/1999/xlink" version="1.1" x="0px" y="0px" viewBox="0 0 100 100" enable-background="new 0 0 100 100" xml:space="preserve"><g><g><path d="M53.342,88.18c0,3.146-0.33,4.627-3.342,4.627c-3.208,0-3.344-1.418-3.344-4.627c0-1.332-2-1.332-2,0    c0,2.797,0,6.627,5.344,6.627c5.342,0,5.342-4.312,5.342-6.627C55.342,86.834,53.342,86.834,53.342,88.18z M78.622,41.579    c-0.537-2.504-0.81-5.088-0.81-7.681V21.875c0-28.517-55.624-28.518-55.624,0v12.023c0,2.588-0.272,5.172-0.807,7.669    c-0.985,4.335-1.807,13.026,3.545,21.789l0.611,9.938c0.453,2.755,2.069,6.894,3.599,9.22l5.82,8.986    c7.261,10.749,22.928,10.592,30.109-0.036l5.793-8.946c1.531-2.33,3.147-6.468,3.613-9.318l0.6-9.848    C79.293,56.436,80.195,48.502,78.622,41.579z M75.199,17.295C66.123,1.632,33.725,1.902,24.802,17.296    C30.156-2.436,69.848-2.421,75.199,17.295z M24.189,27.023c0-18.39,25.395-23.638,41.679-15.741v4.011c0,1.336,2,1.336,2,0V12.43    c0.905,0.585,1.75,1.241,2.519,1.968v4.193c0,1.351,2,1.351,2,0v-1.933c2.186,2.941,3.426,6.546,3.426,10.365v3.123    c-8.176-0.92-12.524,2.074-18.238,3.689c-4.904,1.691-10.234,1.692-15.146,0c-5.428-1.534-10.067-4.61-18.237-3.69v-3.122H24.189z     M72.49,72.971c-0.41,2.48-1.922,6.352-3.307,8.455l-5.8,8.956c-6.175,9.142-20.124,9.839-26.772-0.005l-5.799-8.957    c-1.381-2.1-2.893-5.969-3.29-8.354l-0.537-7.998c0.317,0.096,0.649,0.149,0.992,0.149h0.714l2.185,9.339    c0.103,0.44,0.484,0.735,0.914,0.762l2.151,9.193c0.296,1.264,2.261,0.885,1.947-0.455l-2.862-12.231l3.949-3.793    c0.948-0.912-0.437-2.354-1.386-1.443l-3.093,2.972l-1.016-4.342l4.058,0.002c0.497,0,1.007-0.386,1.007-1    c0-0.064,0.005-0.131,0.013-0.191c0.251-2.008,3.073-1.459,2.825,0.38l-0.836,6.226c-0.118,0.883,0.176,1.746,0.751,2.374V74.9    l-1.376-1.393c0.089,0.069-0.823-0.813-1.914-0.049l-1.035,0.723c-1.108,0.774,0.036,2.414,1.144,1.642l0.611-0.427    c0.007,0.049,0.244,3.621,0.244,3.621c0.019,0.273,0.173,0.522,0.29,0.641l2.62,2.625c1.634,1.637,4.799,2.919,7.207,2.919h5.82    c2.408,0,5.574-1.282,7.206-2.919l2.618-2.625c0.109-0.11,0.271-0.366,0.289-0.641c0,0,0.238-3.572,0.244-3.621l0.61,0.427    c1.114,0.776,2.261-0.862,1.146-1.642l-1.035-0.723c-1.135-0.764-1.883,0.047-1.901,0.063c-0.002-0.002-1.387,1.377-1.387,1.377    v-1.893c0.575-0.63,0.868-1.49,0.751-2.372l-0.836-6.226c-0.25-1.866,2.576-2.236,2.824-0.381    c0.008,0.064,0.014,0.129,0.014,0.191c0,0.565,0.424,0.95,1.007,1l4.06-0.001l-1.018,4.343l-3.095-2.973    c-0.953-0.916-2.339,0.526-1.386,1.443l3.951,3.793l-2.863,12.232c-0.317,1.356,1.648,1.736,1.947,0.455l2.151-9.193    c0.431-0.026,0.812-0.322,0.914-0.764l2.185-9.338h0.715c0.344,0,0.676-0.055,0.992-0.15L72.49,72.971z M39.3,77.746v1.119    l-0.354-0.356l-0.079-1.196L39.3,77.746z M42.21,79.953v1.635c-0.343-0.229-0.659-0.468-0.91-0.719v-1.434    C41.589,79.618,41.893,79.792,42.21,79.953z M41.3,76.92v-2.721c0.3,0.131,0.604,0.25,0.91,0.365v3.074    C41.868,77.41,41.551,77.171,41.3,76.92z M45.121,81.009v1.882c-0.305-0.084-0.608-0.182-0.91-0.295v-1.83    C44.514,80.859,44.819,80.939,45.121,81.009z M44.21,78.646v-3.432c0.302,0.083,0.604,0.162,0.91,0.23v3.494    C44.816,78.857,44.512,78.76,44.21,78.646z M49,81.25v1.949h-1.88V81.25H49z M47.121,79.25v-3.445    c0.622,0.082,1.249,0.139,1.88,0.166v3.279H47.121z M52.88,81.25v1.949H51V81.25H52.88z M51,79.25v-3.279    c0.631-0.027,1.257-0.084,1.88-0.166v3.445H51z M55.791,80.766v1.83c-0.303,0.113-0.605,0.211-0.91,0.295v-1.882    C55.184,80.939,55.486,80.859,55.791,80.766z M54.88,78.941v-3.493c0.306-0.07,0.608-0.149,0.91-0.232v3.431    C55.488,78.76,55.186,78.857,54.88,78.941z M58.701,79.438v1.432c-0.25,0.251-0.566,0.49-0.91,0.719v-1.633    C58.107,79.792,58.412,79.619,58.701,79.438z M57.791,77.639v-3.072c0.307-0.116,0.611-0.235,0.91-0.366v2.72    C58.451,77.17,58.134,77.409,57.791,77.639z M60.701,78.863v-1.118l0.432-0.433l-0.078,1.195L60.701,78.863z M73.241,62.531    c-0.263,0.43-0.718,0.687-1.218,0.687h-6.721c-0.477-1.558-2.043-2.62-3.73-2.395c-1.871,0.251-3.189,1.978-2.938,3.85    l0.837,6.226c0.053,0.398-0.152,0.787-0.519,0.971c-5.433,2.789-12.462,2.793-17.912-0.004c-0.357-0.18-0.562-0.567-0.508-0.967    l0.836-6.226c0.27-2.021-1.207-3.618-2.939-3.85c-1.391-0.185-3.17,0.565-3.731,2.395h-6.719c-0.502,0-0.958-0.257-1.225-0.696    c-4.821-7.742-4.415-15.438-3.579-19.71c1.176,5.365,1.932,8.515,4.744,9.63c4.545,1.789,9.589,1.734,13.982,0.022    c4.34-1.646,4.234-8.163-0.617-9.307l-10.441-2.46c-1.442-0.34-4.195-0.086-5.5,2.629c-0.784-3.237-1.153-6.282-1.153-9.427    v-1.737c7.375-0.905,10.571,1.579,17.587,3.565c5.225,1.801,10.991,1.882,16.448,0c6.555-1.855,10.133-4.48,17.588-3.565v1.737    c0,3.144-0.369,6.188-1.152,9.426c-1.28-2.66-4.016-2.977-5.501-2.627l-10.44,2.46c-4.917,1.159-4.884,7.693-0.627,9.303    c4.316,1.684,9.35,1.809,13.994-0.02c2.652-1.053,3.477-3.855,4.741-9.633C77.85,48.038,77.66,55.43,73.241,62.531z     M36.284,51.213c2.691,0,4.88-2.189,4.88-4.88c0-0.399-0.065-0.788-0.159-1.168c2.656,0.817,2.715,4.47,0.179,5.433    c-3.994,1.555-8.551,1.551-12.53-0.017c-1.423-0.565-1.812-1.94-1.812-2.674v-2.46c0-2.168,2.054-3.153,3.541-2.804l2.21,0.521    c-0.743,0.868-1.189,1.981-1.189,3.169C31.404,49.024,33.593,51.213,36.284,51.213z M33.404,46.333    c0-1.112,0.652-2.117,1.641-2.592l3.496,0.824c0.396,0.505,0.623,1.119,0.623,1.768c0,1.588-1.292,2.88-2.88,2.88    C34.696,49.213,33.404,47.921,33.404,46.333z M63.717,51.213c2.69,0,4.881-2.189,4.881-4.88c0-1.188-0.447-2.302-1.19-3.169    l2.21-0.521c1.936-0.454,3.541,1.065,3.541,2.803v2.462c0,1.169-0.743,2.249-1.809,2.671c-3.986,1.567-8.533,1.575-12.541,0.013    c-2.621-0.992-2.371-4.641,0.187-5.428c-0.095,0.38-0.158,0.768-0.158,1.167C58.836,49.024,61.025,51.213,63.717,51.213z     M60.836,46.333c0-0.649,0.227-1.264,0.623-1.768l3.496-0.824c0.988,0.475,1.643,1.48,1.643,2.592c0,1.588-1.293,2.88-2.881,2.88    C62.128,49.213,60.836,47.921,60.836,46.333z M41.914,31.547c5.213,1.763,10.813,1.797,16.105,0.022    c0.347-0.028,0.707-0.248,0.855-0.642c2.195-5.779,2.167-11.041,1.717-14.579c-0.166-1.312-2.15-1.06-1.984,0.252    c0.424,3.327,0.416,8.021-1.426,13.139c-0.074,0.024-0.152,0.041-0.228,0.064v-5.174c0-1.329-2-1.329-2,0v5.7    c-3.265,0.713-6.643,0.713-9.909,0v-5.7c0-1.345-2-1.345-2,0v5.174c-0.075-0.023-0.152-0.039-0.227-0.063    c-1.853-5.151-1.846-9.853-1.426-13.139c0.168-1.311-1.817-1.564-1.984-0.254c-0.484,3.778-0.411,8.985,1.716,14.58    C41.256,31.272,41.608,31.499,41.914,31.547z M49.167,53.486l-0.083-7.366h1.751v7.366c0,1.352,2,1.352,2,0v-7.396    c0-1.086-0.86-1.97-1.917-1.97h-1.834c-1.058,0-1.917,0.884-1.917,1.97v7.396C47.167,54.839,49.167,54.839,49.167,53.486z     M35.097,55.285l-3,0.97c-1.232,0.397-0.696,2.312,0.615,1.902l3-0.97C36.994,56.773,36.38,54.869,35.097,55.285z M55.111,56.499    c-0.133-0.271-0.223-0.851-0.178-1.153l0.285-2.055c0.182-1.309-1.801-1.583-1.98-0.275l-0.284,2.045    c-0.104,0.703,0.049,1.679,0.362,2.319l2.494,5.076c0.355,0.726,0.205,1.59-0.361,2.14c-1.237,1.148-2.79,1.86-4.448,2.067v-7.72    c0-1.342-2.001-1.342-2.001,0v7.72c-1.657-0.206-3.208-0.916-4.434-2.056c-0.581-0.563-0.732-1.426-0.376-2.151l2.493-5.075    c0.313-0.637,0.468-1.611,0.365-2.313l-0.286-2.053c-0.182-1.309-2.163-1.031-1.98,0.274l0.287,2.06    c0.043,0.301-0.047,0.879-0.18,1.148l-2.493,5.074c-0.742,1.507-0.429,3.305,0.794,4.486c3.857,3.584,9.803,3.549,13.635-0.015    c1.208-1.168,1.521-2.966,0.78-4.474L55.111,56.499z M67.904,56.255l-3-0.97c-1.282-0.416-1.896,1.488-0.615,1.902l3.001,0.97    C68.6,58.564,69.137,56.652,67.904,56.255z"></path></g></g></svg>