<svg height='100px' width='100px'  fill="#000000" xmlns="http://www.w3.org/2000/svg" xmlns:xlink="http://www.w3.org/1999/xlink" version="1.1" x="0px" y="0px" viewBox="0 0 100 100" enable-background="new 0 0 100 100" xml:space="preserve"><g><g><path d="M82.639,48.977c-0.603,0-1.205,0.23-1.665,0.69c-0.92,0.919-0.919,2.41,0.001,3.33c0.46,0.46,1.063,0.69,1.664,0.69    c0.604,0,1.205-0.23,1.666-0.69c0.92-0.92,0.92-2.41,0-3.33C83.845,49.207,83.242,48.977,82.639,48.977z M82.891,51.583    c-0.087,0.086-0.185,0.104-0.252,0.104c-0.066,0-0.164-0.019-0.25-0.105c-0.086-0.086-0.104-0.184-0.104-0.251    c0-0.066,0.018-0.164,0.104-0.25s0.185-0.104,0.251-0.104c0.067,0,0.166,0.019,0.252,0.104s0.104,0.184,0.104,0.251    C82.994,51.398,82.977,51.496,82.891,51.583z M74.646,54.307c-0.604,0-1.205,0.229-1.666,0.689c-0.92,0.92-0.92,2.41,0,3.331    c0.46,0.46,1.063,0.689,1.665,0.689s1.205-0.229,1.665-0.689c0.92-0.921,0.921-2.411,0-3.332    C75.852,54.535,75.249,54.306,74.646,54.307z M74.896,56.912c-0.086,0.086-0.184,0.104-0.251,0.104s-0.165-0.019-0.25-0.104    c-0.139-0.139-0.139-0.364,0-0.503c0.086-0.086,0.184-0.104,0.251-0.104c0.066,0,0.165,0.018,0.25,0.103    C75.035,56.548,75.035,56.774,74.896,56.912z M51.331,80.283c-0.603,0.001-1.204,0.23-1.665,0.69    c-0.92,0.919-0.92,2.411,0.001,3.331c0.46,0.46,1.063,0.689,1.665,0.689s1.205-0.229,1.665-0.689c0.921-0.92,0.921-2.41,0-3.33    C52.537,80.514,51.934,80.283,51.331,80.283z M51.583,82.891c-0.086,0.086-0.185,0.104-0.251,0.104s-0.165-0.018-0.251-0.104    c-0.087-0.087-0.104-0.185-0.104-0.252s0.018-0.165,0.104-0.251s0.185-0.104,0.252-0.104c0.066,0.001,0.164,0.019,0.251,0.105    s0.104,0.185,0.104,0.251S51.67,82.804,51.583,82.891z M56.661,72.291c-0.603,0-1.205,0.229-1.665,0.689    c-0.92,0.92-0.92,2.41,0,3.331c0.459,0.46,1.062,0.69,1.664,0.69c0.604,0,1.206-0.23,1.666-0.691c0.92-0.92,0.92-2.41,0-3.33    C57.866,72.521,57.264,72.291,56.661,72.291z M56.911,74.896c-0.086,0.087-0.184,0.105-0.251,0.105    c-0.066,0-0.164-0.019-0.25-0.104c-0.139-0.14-0.139-0.365,0-0.504c0.086-0.086,0.184-0.104,0.251-0.104s0.165,0.018,0.251,0.104    s0.104,0.184,0.104,0.251S56.998,74.811,56.911,74.896z M62.322,26.145c-1.928,0-3.857,0.735-5.328,2.206    c-2.943,2.943-2.943,7.716,0,10.658c1.471,1.472,3.4,2.208,5.328,2.208c1.93,0,3.857-0.736,5.329-2.208    c2.942-2.943,2.944-7.715,0-10.658C66.18,26.88,64.252,26.145,62.322,26.145z M66.873,36.815l-1.179-1.178l-1.414,1.414    l1.181,1.181c-0.916,0.636-1.998,0.984-3.139,0.984c-0.148,0-0.291-0.031-0.438-0.043l0.429-1.596l-1.932-0.518l-0.431,1.604    c-0.563-0.269-1.09-0.615-1.543-1.069c-0.46-0.46-0.801-0.989-1.064-1.545l1.599-0.429l-0.518-1.932l-1.594,0.427    c-0.098-1.242,0.206-2.505,0.941-3.571l1.179,1.179l1.415-1.414l-1.182-1.183c0.917-0.635,1.999-0.982,3.138-0.982    c0.148,0,0.291,0.031,0.438,0.043l-0.428,1.595l1.932,0.518l0.43-1.603c0.563,0.268,1.09,0.613,1.544,1.067    c0.46,0.46,0.801,0.989,1.064,1.546l-1.598,0.428l0.517,1.932l1.594-0.427C67.912,34.486,67.608,35.749,66.873,36.815z     M55.287,44.712l1.414-1.414L54.703,41.3l-1.414,1.414L55.287,44.712z M37.011,53.664l6.661,6.66l9.033-9.033l7.619-7.62    l-6.66-6.66L37.011,53.664z M51.291,49.877l-2.582-2.583l-1.414,1.414l2.582,2.583l-6.205,6.205l-3.832-3.832l13.824-13.825    l3.832,3.832L51.291,49.877z M98.601,34.704l0.691-0.691L88.635,23.355l-0.666,0.666l-22.18-22.18C64.561,0.614,62.941,0,61.323,0    s-3.237,0.614-4.466,1.842L1.842,56.857c-2.455,2.457-2.455,6.475,0,8.932l22.18,22.18l-0.666,0.666l10.657,10.657l0.691-0.691    c1.151,0.933,2.562,1.399,3.972,1.399c1.619,0,3.237-0.614,4.466-1.842l55.017-55.016    C100.456,40.844,100.603,37.179,98.601,34.704z M48.4,89.923c-0.057-0.016-0.144-0.086-0.228-0.226l-4.907-8.18    c-0.373-0.622-0.236-1.736,0.277-2.25l35.725-35.725c0.299-0.298,0.836-0.491,1.368-0.491c0.339,0,0.652,0.076,0.882,0.214    l8.179,4.908c0.162,0.098,0.216,0.183,0.228,0.226L48.4,89.923z M96.67,41.654l-5.326,5.326c-0.173-0.191-0.37-0.372-0.619-0.521    l-8.178-4.908c-0.562-0.337-1.232-0.499-1.912-0.499c-1.03,0-2.078,0.374-2.781,1.077L42.129,77.854    c-1.166,1.166-1.427,3.279-0.578,4.693l4.907,8.179c0.149,0.249,0.329,0.446,0.521,0.619l-5.325,5.325    c-0.79,0.79-1.848,1.226-2.978,1.226c-1.129,0-2.186-0.436-2.977-1.226L3.331,64.301c-1.642-1.643-1.642-4.313-0.001-5.955    L58.346,3.33c0.791-0.79,1.848-1.226,2.978-1.226S63.51,2.54,64.301,3.33L96.67,35.699C98.311,37.342,98.311,40.012,96.67,41.654z     M51.291,44.712l1.998,1.999l1.414-1.414l-1.998-1.999L51.291,44.712z M33.68,54.787c-1.929,0-3.857,0.736-5.328,2.207    c-2.943,2.942-2.943,7.716,0,10.658c1.471,1.471,3.399,2.207,5.328,2.207s3.857-0.736,5.328-2.207    c2.943-2.943,2.943-7.716,0.001-10.658C37.537,55.523,35.608,54.787,33.68,54.787z M39.216,62.322c0,1.14-0.349,2.223-0.983,3.14    l-1.182-1.182l-1.414,1.414l1.182,1.182c-0.917,0.635-2,0.983-3.139,0.983c-0.148,0-0.29-0.031-0.437-0.043l0.429-1.593    l-1.932-0.52l-0.431,1.603c-0.563-0.268-1.091-0.615-1.544-1.068c-0.454-0.454-0.801-0.982-1.069-1.545l1.603-0.429l-0.517-1.932    l-1.596,0.427c-0.011-0.146-0.042-0.288-0.042-0.437c0-1.14,0.348-2.222,0.982-3.139l1.182,1.182l1.414-1.414l-1.181-1.183    c0.917-0.634,1.999-0.982,3.138-0.982c0.148,0,0.291,0.031,0.438,0.043l-0.428,1.595l1.932,0.518l0.43-1.603    c0.563,0.269,1.09,0.615,1.544,1.068c0.454,0.454,0.801,0.981,1.069,1.545l-1.604,0.429l0.518,1.932l1.596-0.427    C39.185,62.032,39.216,62.174,39.216,62.322z M63.445,4.828c-0.584-0.583-1.353-0.875-2.121-0.875    c-0.77,0-1.539,0.292-2.122,0.875L4.827,59.203c-1.167,1.166-1.167,3.076,0,4.242l22.402,22.402    c0.583,0.583,1.353,0.875,2.121,0.875s1.538-0.292,2.121-0.875l54.376-54.376c1.166-1.167,1.166-3.075,0-4.242L63.445,4.828z     M84.434,30.058L30.058,84.434c-0.251,0.251-0.551,0.289-0.707,0.289s-0.456-0.038-0.707-0.289L6.241,62.03    c-0.252-0.251-0.289-0.55-0.289-0.706s0.037-0.455,0.289-0.707L60.615,6.243c0.252-0.252,0.553-0.29,0.709-0.29    s0.455,0.038,0.707,0.289l22.402,22.401C84.816,29.027,84.816,29.674,84.434,30.058z M49.293,46.711l1.998,1.998l1.414-1.414    l-1.998-1.998L49.293,46.711z M43.298,52.705l1.998,1.998l1.414-1.414l-1.998-1.998L43.298,52.705z M41.299,54.703l1.999,1.999    l1.414-1.414l-1.999-1.999L41.299,54.703z M45.296,50.707l1.999,1.998l1.414-1.414l-1.999-1.998L45.296,50.707z"></path></g></g></svg>