<svg height='100px' width='100px'  fill="#000000" xmlns="http://www.w3.org/2000/svg" xmlns:xlink="http://www.w3.org/1999/xlink" version="1.1" x="0px" y="0px" viewBox="0 0 100 100" enable-background="new 0 0 100 100" xml:space="preserve"><g><g><path d="M56.471,62.057c3.953,0.004,7.168-3.213,7.168-7.166c0-3.951-3.215-7.167-7.168-7.167c-3.951,0-7.167,3.214-7.167,7.167    S52.52,62.057,56.471,62.057z M56.471,49.703c2.858,0,5.188,2.326,5.188,5.188c0,2.86-2.33,5.187-5.188,5.187    c-2.859,0.001-5.188-2.326-5.188-5.187C51.282,52.027,53.609,49.703,56.471,49.703z M56.336,34.434    c2.189,0,3.964-1.775,3.964-3.965c0-2.188-1.772-3.963-3.964-3.963c-2.189,0-3.965,1.774-3.965,3.963    C52.371,32.658,54.146,34.434,56.336,34.434z M56.336,28.486c1.092,0,1.982,0.89,1.982,1.983c0,1.094-0.889,1.984-1.982,1.984    c-1.093,0-1.984-0.89-1.984-1.984C54.354,29.375,55.243,28.486,56.336,28.486z M56.471,68.063c7.264,0,13.172-5.908,13.172-13.172    s-5.908-13.176-13.172-13.176s-13.173,5.91-13.173,13.176C43.297,62.154,49.207,68.063,56.471,68.063z M56.471,43.697    c6.172,0,11.193,5.021,11.193,11.193c0,6.17-5.021,11.192-11.193,11.192c-6.174,0-11.192-5.021-11.192-11.192    C45.279,48.72,50.299,43.697,56.471,43.697z M77.943,29.307l-0.715,0.208v4.279L77.945,34c1.383,0.422,3.14,0.39,4.49-0.023    l0.701-0.214V29.54l-0.701-0.213C81.084,28.919,79.316,28.907,77.943,29.307z M81.154,32.241c-0.616,0.096-1.313,0.102-1.944,0.01    v-1.196c0.629-0.091,1.328-0.086,1.944,0.01V32.241z M96.234,40.588V24.135c0-1.056-0.856-1.914-1.916-1.914H42.316v4.93H5.64    c-1.056,0-1.914,0.858-1.914,1.914v11.524c-4.301,0.086-4.301,6.538,0,6.626v28.649c0,1.055,0.858,1.913,1.914,1.913h88.682    c1.055,0,1.914-0.858,1.914-1.913V47.216C100.589,47.129,100.589,40.676,96.234,40.588z M3.726,45.235    c-1.728-0.087-1.728-2.58,0-2.667V45.235z M5.655,40.312h19.676c-0.021,0.15-0.045,0.299-0.045,0.455    c0,1.831,1.489,3.321,3.32,3.321s3.321-1.489,3.321-3.321c0-0.155-0.025-0.305-0.046-0.455h11.48    c-3.178,2.862-5.418,6.734-6.203,11.115c-0.487-0.276-1.043-0.45-1.644-0.45c-1.831,0-3.32,1.49-3.32,3.32    c0,1.832,1.489,3.321,3.32,3.321c0.533,0,1.03-0.138,1.475-0.36c0.746,6.188,4.38,11.485,9.509,14.526H5.7L5.655,40.312z     M27.266,40.767c0-0.738,0.601-1.341,1.34-1.341c0.739,0,1.341,0.601,1.341,1.341c0,0.74-0.601,1.341-1.341,1.341    C27.866,42.106,27.266,41.505,27.266,40.767z M56.471,37.233c9.737,0,17.659,7.921,17.659,17.658    c0,9.737-7.922,17.659-17.659,17.659c-9.736,0-17.658-7.922-17.658-17.659C38.813,45.154,46.734,37.233,56.471,37.233z     M36.854,54.293c0,0.74-0.601,1.341-1.34,1.341c-0.739,0-1.34-0.599-1.34-1.341c0-0.741,0.601-1.34,1.34-1.34    C36.253,52.953,36.854,53.555,36.854,54.293z M94.254,75.799L5.706,75.865L5.703,73.76h45.38c1.714,0.49,3.519,0.771,5.388,0.771    c1.903,0,3.738-0.287,5.48-0.797c0.041,0.008,32.303,0.022,32.303,0.022V75.799z M94.254,71.777H66.441    c5.774-3.422,9.668-9.7,9.668-16.887c0-5.791-2.531-10.983-6.528-14.583h24.673V71.777z M94.256,38.332H66.982    c-3.043-1.938-6.645-3.078-10.512-3.078s-7.47,1.14-10.514,3.078H30.845c-0.593-0.544-1.375-0.885-2.24-0.885    c-0.873,0-1.664,0.346-2.257,0.9c-0.026-0.002-0.047-0.015-0.073-0.015H5.652L5.64,29.131h38.657v-4.93l49.959-0.066V38.332z     M96.234,45.235v-2.667C98.025,42.659,98.025,45.147,96.234,45.235z M73.716,37.513H86.65c0.509,0,0.925-0.417,0.925-0.924v-9.874    c0-0.508-0.416-0.925-0.925-0.925H73.716c-0.509,0-0.925,0.417-0.925,0.925v9.874C72.793,37.097,73.207,37.513,73.716,37.513z     M74.773,27.772h10.819v7.76H74.773V27.772z M56.471,71.451c9.131,0,16.562-7.43,16.562-16.561    c0-9.135-7.431-16.563-16.562-16.563c-9.132,0-16.561,7.428-16.561,16.563C39.91,64.021,47.338,71.451,56.471,71.451z     M56.471,40.31c8.039,0,14.58,6.541,14.58,14.581c0,8.043-6.539,14.582-14.58,14.582c-8.039,0-14.579-6.539-14.579-14.582    C41.892,46.85,48.432,40.31,56.471,40.31z M38.207,30.585h-6.004c-0.253,0-0.461,0.208-0.461,0.462v3.771    c0,0.253,0.208,0.461,0.461,0.461h6.004c0.254,0,0.461-0.208,0.461-0.461v-3.771C38.668,30.793,38.461,30.585,38.207,30.585z     M36.689,33.3h-2.968v-0.735h2.968V33.3z M15.19,26.973h9.238c0.801,0,1.452-0.651,1.452-1.452v-1.848    c0-0.801-0.652-1.452-1.452-1.452h-9.237c-0.801,0-1.452,0.652-1.452,1.452v1.848C13.738,26.321,14.39,26.973,15.19,26.973z     M15.718,24.201H23.9v0.792h-8.182V24.201z M28.585,26.973H39.67c1.055,0,1.914-0.858,1.914-1.914v-0.924    c0-1.056-0.858-1.914-1.914-1.914H28.585c-1.056,0-1.915,0.858-1.915,1.914v0.924C26.67,26.113,27.53,26.973,28.585,26.973z     M28.585,24.167h11.019v0.857H28.585V24.167z"></path></g></g></svg>